<svg version="1.2" xmlns="http://www.w3.org/2000/svg" viewBox="0 0 172 17" width="100" height="17">
	<title>menu</title>
	<style>
		.s0 { fill: #3cb878 } 
		.s1 { fill: #000000 } 
	</style>
	<g id="menu">
		<path id="-e-Renoshopbee copy" class="s0" aria-label="Renoshopbee"  d="m9.7 8.8q0.7 0.3 1.4 1.1 0.8 0.8 1.5 2.3l2.4 4.8h-2.6l-2.2-4.5q-0.9-1.7-1.7-2.3-0.8-0.6-2.2-0.6h-2.6v7.4h-2.3v-17.5h5.3q3 0 4.5 1.3 1.5 1.2 1.5 3.7 0 1.7-0.8 2.8-0.8 1.1-2.2 1.5zm-3-7.4h-3v6.3h3q1.7 0 2.6-0.8 0.9-0.8 0.9-2.4 0-1.5-0.9-2.3-0.9-0.8-2.6-0.8zm11.4 15.6v-17.5h11.1v2h-8.7v5.2h8.3v2h-8.3v6.3h8.9v2zm15.3 0v-17.5h3.1l7.8 14.6v-14.6h2.3v17.5h-3.2l-7.7-14.6v14.6zm25.1-15.9q-2.6 0-4.1 1.9-1.5 2-1.5 5.3 0 3.3 1.5 5.2 1.5 1.9 4.1 1.9 2.6 0 4.1-1.9 1.5-1.9 1.5-5.2 0-3.3-1.5-5.3-1.5-1.9-4.1-1.9zm0-1.9q3.7 0 5.9 2.5 2.2 2.4 2.2 6.6 0 4.1-2.2 6.6-2.2 2.4-5.9 2.4-3.7 0-5.9-2.4-2.2-2.5-2.2-6.6 0-4.2 2.2-6.6 2.2-2.5 5.9-2.5zm22.4 0.9v2.3q-1.4-0.7-2.6-1-1.2-0.3-2.3-0.3-1.9 0-3 0.8-1 0.7-1 2.1 0 1.2 0.7 1.8 0.7 0.5 2.6 0.9l1.5 0.3q2.6 0.5 3.9 1.8 1.2 1.2 1.2 3.4 0 2.5-1.7 3.8-1.7 1.3-5 1.3-1.2 0-2.6-0.2-1.4-0.3-2.9-0.9v-2.4q1.4 0.8 2.8 1.2 1.4 0.4 2.7 0.4 2.1 0 3.2-0.8 1.1-0.8 1.1-2.3 0-1.2-0.8-2-0.8-0.7-2.6-1.1l-1.5-0.2q-2.6-0.6-3.8-1.7-1.2-1.1-1.2-3.1 0-2.3 1.6-3.7 1.7-1.3 4.6-1.3 1.2 0 2.5 0.2 1.2 0.2 2.6 0.7zm4.8 16.9v-17.5h2.4v7.2h8.6v-7.2h2.4v17.5h-2.4v-8.3h-8.6v8.3zm25.2-15.9q-2.5 0-4.1 1.9-1.5 2-1.5 5.3 0 3.3 1.5 5.2 1.6 1.9 4.1 1.9 2.6 0 4.1-1.9 1.5-1.9 1.5-5.2 0-3.3-1.5-5.3-1.5-1.9-4.1-1.9zm0-1.9q3.7 0 5.9 2.5 2.2 2.4 2.2 6.6 0 4.1-2.2 6.6-2.2 2.4-5.9 2.4-3.7 0-5.9-2.4-2.2-2.5-2.2-6.6 0-4.2 2.2-6.6 2.2-2.5 5.9-2.5zm17.3 2.2h-3v6.6h3q1.6 0 2.5-0.8 0.9-0.9 0.9-2.5 0-1.5-0.9-2.4-0.9-0.9-2.5-0.9zm-5.4 15.6v-17.5h5.4q2.9 0 4.4 1.3 1.5 1.4 1.5 3.9 0 2.6-1.5 3.9-1.5 1.4-4.4 1.4h-3v7z"/>
		<path id="-e-Renoshopbee copy" class="s1" aria-label="Renoshopbee"  d="m146.6 12.3c0 2.1-1.5 3.3-3.9 3.3h-4v-6.6h3.9c2.4 0 4 1.3 4 3.3zm-0.4-7.7c0 1.9-1.3 3-3.6 3h-3.9v-6h3.8c2.5 0 3.7 1.2 3.7 3zm2 7.9c0-2.1-1.5-3.8-3.3-4.2 1.6-0.4 3-1.6 3-3.9 0-2.3-1.7-4.2-5.2-4.2h-5.7v16.8h5.8c3.6 0 5.4-2 5.4-4.5zm12-12.3h-8.8v16.8h8.8v-1.4h-7.1v-6.4h6.4v-1.3h-6.4v-6.3h7.1zm12.2 0h-8.8v16.8h8.8v-1.4h-7.1v-6.4h6.3v-1.4h-6.3v-6.2h7.1z"/>
	</g>
</svg>