<svg width="16" height="16" viewBox="0 0 16 16" fill="none" xmlns="http://www.w3.org/2000/svg">
<path d="M15.8 13.8C15.9 14 16 14.2 16 14.4C16 14.6 15.9 14.8 15.8 14.9L14.9 15.8C14.8 15.9 14.6 16 14.4 16C14.2 16 14 15.9 13.8 15.8L10.7 12.7C10.6 12.5 10.5 12.3 10.5 12.1V11.6C9.3 12.5 8 13 6.5 13C5.3 13 4.19995 12.7 3.19995 12.1C2.19995 11.5 1.50002 10.8 0.900024 9.8C0.300024 8.8 0 7.7 0 6.5C0 5.3 0.300024 4.2 0.900024 3.2C1.50002 2.2 2.19995 1.5 3.19995 0.900002C4.19995 0.300002 5.3 0 6.5 0C7.7 0 8.80005 0.300002 9.80005 0.900002C10.8 1.5 11.5 2.2 12.1 3.2C12.7 4.2 13 5.3 13 6.5C13 8 12.5 9.3 11.6 10.5H12.1C12.3 10.5 12.5 10.6 12.7 10.7L15.8 13.8ZM6.5 10.5C7.2 10.5 7.9 10.3 8.5 9.9C9.1 9.6 9.60002 9.1 9.90002 8.5C10.3 7.9 10.5 7.2 10.5 6.5C10.5 5.7 10.3 5.1 9.90002 4.5C9.60002 3.8 9.1 3.4 8.5 3C7.9 2.7 7.2 2.5 6.5 2.5C5.7 2.5 5.1 2.7 4.5 3C3.8 3.4 3.4 3.8 3 4.5C2.7 5.1 2.5 5.7 2.5 6.5C2.5 7.2 2.7 7.9 3 8.5C3.4 9.1 3.8 9.6 4.5 9.9C5.1 10.3 5.7 10.5 6.5 10.5Z" fill="#333333"/>
</svg>
